<?xml version="1.0" encoding="UTF-8"?>
<svg xmlns="http://www.w3.org/2000/svg" xmlns:xlink="http://www.w3.org/1999/xlink" width="70pt" height="70pt" viewBox="0 0 70 70" version="1.1">
<defs>
<linearGradient id="linear0" gradientUnits="userSpaceOnUse" x1="12.896" y1="-0.54" x2="12.896" y2="6.922" gradientTransform="matrix(3.888889,-0.000000000000000119,0.000000000000000119,3.888889,0.000906421,0.0000564924)">
<stop offset="0" style="stop-color:rgb(41,164,255);stop-opacity:1;"/>
<stop offset="1" style="stop-color:rgb(0,108,188);stop-opacity:1;"/>
</linearGradient>
<linearGradient id="linear1" gradientUnits="userSpaceOnUse" x1="5.104" y1="5.035" x2="5.104" y2="12.497" gradientTransform="matrix(3.888889,0.000000000000000178,-0.000000000000000178,3.888889,-0.00246839,-0.000460305)">
<stop offset="0" style="stop-color:rgb(41,164,255);stop-opacity:1;"/>
<stop offset="1" style="stop-color:rgb(0,108,188);stop-opacity:1;"/>
</linearGradient>
</defs>
<g id="surface1">
<path style=" stroke:none;fill-rule:nonzero;fill:rgb(95,187,255);fill-opacity:1;" d="M 64.699219 47.082031 L 61.582031 50.210938 C 61.03125 50.765625 60.136719 50.765625 59.585938 50.214844 L 36.503906 27.199219 C 35.398438 26.09375 35.394531 24.304688 36.496094 23.199219 L 39.617188 20.070313 L 64.699219 45.085938 C 64.964844 45.347656 65.117188 45.710938 65.117188 46.085938 C 65.117188 46.460938 64.964844 46.820313 64.699219 47.082031 Z M 64.699219 47.082031 "/>
<path style=" stroke:none;fill-rule:nonzero;fill:url(#linear0);" d="M 61.117188 0.410156 L 64.246094 3.53125 C 64.796875 4.082031 64.796875 4.976563 64.25 5.527344 L 39.601563 30.246094 L 36.472656 27.125 C 35.367188 26.023438 35.363281 24.234375 36.464844 23.128906 L 59.117188 0.414063 C 59.664063 -0.136719 60.558594 -0.140625 61.113281 0.410156 Z M 61.117188 0.410156 "/>
<path style=" stroke:none;fill-rule:nonzero;fill:rgb(95,187,255);fill-opacity:1;" d="M 30.382813 39.445313 L 33.503906 42.574219 C 34.605469 43.679688 34.601563 45.46875 33.496094 46.574219 L 10.414063 69.589844 C 9.863281 70.140625 8.96875 70.136719 8.417969 69.585938 L 5.296875 66.457031 C 4.746094 65.902344 4.746094 65.007813 5.300781 64.460938 Z M 30.382813 39.445313 "/>
<path style=" stroke:none;fill-rule:nonzero;fill:url(#linear1);" d="M 33.523438 46.496094 L 30.394531 49.617188 L 5.753906 24.90625 C 5.203125 24.351563 5.203125 23.460938 5.757813 22.910156 L 8.882813 19.789063 C 9.4375 19.238281 10.332031 19.238281 10.882813 19.792969 L 33.53125 42.503906 C 34.632813 43.609375 34.628906 45.402344 33.523438 46.503906 Z M 33.523438 46.496094 "/>
</g>
</svg>
