<?xml version="1.0" encoding="UTF-8"?>
<svg xmlns="http://www.w3.org/2000/svg" xmlns:xlink="http://www.w3.org/1999/xlink" width="70pt" height="70pt" viewBox="0 0 70 70" version="1.1">
<defs>
<linearGradient id="linear0" gradientUnits="userSpaceOnUse" x1="8.995" y1="10.299" x2="8.995" y2="13.199" gradientTransform="matrix(3.888889,0,0,3.888889,0,0)">
<stop offset="0" style="stop-color:rgb(0,81,142);stop-opacity:1;"/>
<stop offset="0.258" style="stop-color:rgb(0,79,138);stop-opacity:1;"/>
<stop offset="0.525" style="stop-color:rgb(0,71,124);stop-opacity:1;"/>
<stop offset="0.796" style="stop-color:rgb(0,57,100);stop-opacity:1;"/>
<stop offset="1" style="stop-color:rgb(0,44,78);stop-opacity:1;"/>
</linearGradient>
<filter id="alpha" filterUnits="objectBoundingBox" x="0%" y="0%" width="100%" height="100%">
  <feColorMatrix type="matrix" in="SourceGraphic" values="0 0 0 0 1 0 0 0 0 1 0 0 0 0 1 0 0 0 1 0"/>
</filter>
<mask id="mask0">
  <g filter="url(#alpha)">
<rect x="0" y="0" width="70" height="70" style="fill:rgb(0,0,0);fill-opacity:0.501961;stroke:none;"/>
  </g>
</mask>
<clipPath id="clip1">
  <rect x="0" y="0" width="70" height="70"/>
</clipPath>
<g id="surface5" clip-path="url(#clip1)">
<path style=" stroke:none;fill-rule:nonzero;fill:rgb(51,168,255);fill-opacity:1;" d="M 4.167969 5.5625 L 9.1875 5.5625 L 9.1875 19.5625 C 9.1875 20.175781 8.6875 20.671875 8.074219 20.671875 L 3.058594 20.671875 C 2.449219 20.671875 1.953125 20.1875 1.945313 19.582031 L 1.945313 7.777344 C 1.949219 6.550781 2.945313 5.5625 4.167969 5.5625 Z M 4.167969 5.5625 "/>
</g>
<mask id="mask1">
  <g filter="url(#alpha)">
<rect x="0" y="0" width="70" height="70" style="fill:rgb(0,0,0);fill-opacity:0.501961;stroke:none;"/>
  </g>
</mask>
<clipPath id="clip2">
  <rect x="0" y="0" width="70" height="70"/>
</clipPath>
<g id="surface8" clip-path="url(#clip2)">
<path style=" stroke:none;fill-rule:nonzero;fill:rgb(51,168,255);fill-opacity:1;" d="M 60.8125 5.5625 L 65.832031 5.5625 C 67.054688 5.5625 68.050781 6.550781 68.054688 7.777344 L 68.054688 19.582031 C 68.054688 20.195313 67.558594 20.691406 66.941406 20.691406 L 61.925781 20.691406 C 61.3125 20.691406 60.8125 20.195313 60.8125 19.582031 Z M 60.8125 5.5625 "/>
</g>
<mask id="mask2">
  <g filter="url(#alpha)">
<rect x="0" y="0" width="70" height="70" style="fill:rgb(0,0,0);fill-opacity:0.501961;stroke:none;"/>
  </g>
</mask>
<clipPath id="clip3">
  <rect x="0" y="0" width="70" height="70"/>
</clipPath>
<g id="surface11" clip-path="url(#clip3)">
<path style=" stroke:none;fill-rule:nonzero;fill:rgb(51,168,255);fill-opacity:1;" d="M 3.058594 49.308594 L 8.074219 49.308594 C 8.6875 49.308594 9.1875 49.804688 9.1875 50.417969 L 9.1875 64.417969 L 4.167969 64.417969 C 2.949219 64.417969 1.960938 63.441406 1.945313 62.222656 L 1.945313 50.417969 C 1.945313 49.804688 2.441406 49.308594 3.058594 49.308594 Z M 3.058594 49.308594 "/>
</g>
<mask id="mask3">
  <g filter="url(#alpha)">
<rect x="0" y="0" width="70" height="70" style="fill:rgb(0,0,0);fill-opacity:0.501961;stroke:none;"/>
  </g>
</mask>
<clipPath id="clip4">
  <rect x="0" y="0" width="70" height="70"/>
</clipPath>
<g id="surface14" clip-path="url(#clip4)">
<path style=" stroke:none;fill-rule:nonzero;fill:rgb(51,168,255);fill-opacity:1;" d="M 61.925781 49.308594 L 66.941406 49.308594 C 67.558594 49.308594 68.054688 49.804688 68.054688 50.417969 L 68.054688 62.222656 C 68.054688 63.449219 67.058594 64.445313 65.832031 64.445313 L 60.8125 64.445313 L 60.8125 50.445313 C 60.808594 50.148438 60.921875 49.855469 61.128906 49.640625 C 61.339844 49.429688 61.625 49.308594 61.925781 49.308594 Z M 61.925781 49.308594 "/>
</g>
</defs>
<g id="surface1">
<path style=" stroke:none;fill-rule:nonzero;fill:rgb(119,197,255);fill-opacity:1;" d="M 52.0625 28.777344 L 52.042969 28.761719 L 52.042969 28.714844 L 51.96875 28.714844 L 34.988281 17.128906 L 18.007813 28.714844 L 17.9375 28.714844 L 17.9375 28.761719 L 17.914063 28.777344 L 17.9375 28.777344 L 17.9375 51.335938 L 52.042969 51.335938 L 52.042969 28.777344 Z M 52.0625 28.777344 "/>
<path style=" stroke:none;fill-rule:nonzero;fill:rgb(47,166,255);fill-opacity:1;" d="M 17.914063 28.777344 C 17.914063 28.390625 17.941406 50.871094 17.941406 51.332031 L 34.980469 40.054688 Z M 17.914063 28.777344 "/>
<path style=" stroke:none;fill-rule:nonzero;fill:rgb(0,124,216);fill-opacity:1;" d="M 52.050781 28.777344 L 34.980469 40.054688 L 52.019531 51.332031 C 52.019531 50.878906 52.050781 28.390625 52.050781 28.777344 Z M 52.050781 28.777344 "/>
<path style=" stroke:none;fill-rule:nonzero;fill:url(#linear0);" d="M 34.980469 40.050781 L 17.941406 51.308594 L 17.941406 51.328125 L 52.019531 51.328125 L 52.019531 51.308594 Z M 34.980469 40.050781 "/>
<path style=" stroke:none;fill-rule:nonzero;fill:rgb(51,168,255);fill-opacity:1;" d="M 4.167969 5.5625 L 9.1875 5.5625 L 9.1875 19.5625 C 9.1875 20.175781 8.6875 20.671875 8.074219 20.671875 L 3.058594 20.671875 C 2.449219 20.671875 1.953125 20.1875 1.945313 19.582031 L 1.945313 7.777344 C 1.949219 6.550781 2.945313 5.5625 4.167969 5.5625 Z M 4.167969 5.5625 "/>
<use xlink:href="#surface5" mask="url(#mask0)"/>
<path style=" stroke:none;fill-rule:nonzero;fill:rgb(51,168,255);fill-opacity:1;" d="M 60.8125 5.5625 L 65.832031 5.5625 C 67.054688 5.5625 68.050781 6.550781 68.054688 7.777344 L 68.054688 19.582031 C 68.054688 20.195313 67.558594 20.691406 66.941406 20.691406 L 61.925781 20.691406 C 61.3125 20.691406 60.8125 20.195313 60.8125 19.582031 Z M 60.8125 5.5625 "/>
<use xlink:href="#surface8" mask="url(#mask1)"/>
<path style=" stroke:none;fill-rule:nonzero;fill:rgb(41,164,255);fill-opacity:1;" d="M 68.054688 7.765625 L 68.054688 12.617188 L 1.945313 12.617188 L 1.945313 7.765625 C 1.945313 6.546875 2.933594 5.5625 4.148438 5.5625 L 65.867188 5.5625 C 67.078125 5.570313 68.054688 6.554688 68.054688 7.765625 Z M 68.054688 7.765625 "/>
<path style=" stroke:none;fill-rule:nonzero;fill:rgb(51,168,255);fill-opacity:1;" d="M 3.058594 49.308594 L 8.074219 49.308594 C 8.6875 49.308594 9.1875 49.804688 9.1875 50.417969 L 9.1875 64.417969 L 4.167969 64.417969 C 2.949219 64.417969 1.960938 63.441406 1.945313 62.222656 L 1.945313 50.417969 C 1.945313 49.804688 2.441406 49.308594 3.058594 49.308594 Z M 3.058594 49.308594 "/>
<use xlink:href="#surface11" mask="url(#mask2)"/>
<path style=" stroke:none;fill-rule:nonzero;fill:rgb(51,168,255);fill-opacity:1;" d="M 61.925781 49.308594 L 66.941406 49.308594 C 67.558594 49.308594 68.054688 49.804688 68.054688 50.417969 L 68.054688 62.222656 C 68.054688 63.449219 67.058594 64.445313 65.832031 64.445313 L 60.8125 64.445313 L 60.8125 50.445313 C 60.808594 50.148438 60.921875 49.855469 61.128906 49.640625 C 61.339844 49.429688 61.625 49.308594 61.925781 49.308594 Z M 61.925781 49.308594 "/>
<use xlink:href="#surface14" mask="url(#mask3)"/>
<path style=" stroke:none;fill-rule:nonzero;fill:rgb(41,164,255);fill-opacity:1;" d="M 1.945313 62.234375 L 1.945313 57.382813 L 68.054688 57.382813 L 68.054688 62.234375 C 68.054688 63.453125 67.066406 64.4375 65.851563 64.4375 L 4.148438 64.4375 C 2.933594 64.4375 1.945313 63.453125 1.945313 62.234375 Z M 1.945313 62.234375 "/>
</g>
</svg>
